<?xml version="1.0" encoding="UTF-8"?>
<svg xmlns="http://www.w3.org/2000/svg" width="1320" height="340" viewBox="70 360 1320 340" role="img" aria-labelledby="title desc">
  <title id="title">ToilDefender logo</title>
  <desc id="desc">True vector SVG rebuild of the provided ToilDefender logo. No embedded raster image.</desc>
  <defs>
    <linearGradient id="td-icon-bg" x1="98" y1="392" x2="372" y2="672" gradientUnits="userSpaceOnUse">
      <stop offset="0" stop-color="#6990FF"/>
      <stop offset="0.13" stop-color="#583DE9"/>
      <stop offset="0.31" stop-color="#521BE0"/>
      <stop offset="0.68" stop-color="#6900F4"/>
      <stop offset="1" stop-color="#7F00F6"/>
    </linearGradient>
    <linearGradient id="td-icon-facet" x1="142" y1="660" x2="142" y2="384" gradientUnits="userSpaceOnUse">
      <stop offset="0" stop-color="#6990FF" stop-opacity="0.44"/>
      <stop offset="0.55" stop-color="#531AE1" stop-opacity="0.72"/>
      <stop offset="1" stop-color="#531AE1" stop-opacity="0"/>
    </linearGradient>
    <linearGradient id="td-word-defender" x1="704" y1="466" x2="1376" y2="595" gradientUnits="userSpaceOnUse">
      <stop offset="0" stop-color="#583DE9"/>
      <stop offset="0.32" stop-color="#521BE0"/>
      <stop offset="0.72" stop-color="#6900F4"/>
      <stop offset="1" stop-color="#7F00F6"/>
    </linearGradient>
    <linearGradient id="td-toil-edge" x1="430" y1="466" x2="708" y2="594" gradientUnits="userSpaceOnUse">
      <stop offset="0" stop-color="#6990FF"/>
      <stop offset="0.16" stop-color="#5D6BF2"/>
      <stop offset="0.36" stop-color="#583DE9"/>
      <stop offset="0.62" stop-color="#521BE0"/>
      <stop offset="0.84" stop-color="#6900F4"/>
      <stop offset="1" stop-color="#7F00F6"/>
    </linearGradient>
    <clipPath id="td-icon-clip">
      <rect x="88" y="384" width="292" height="294" rx="74"/>
    </clipPath>
  </defs>
  <g id="icon">
    <rect x="88" y="384" width="292" height="294" rx="74" fill="url(#td-icon-bg)"/>
    <path d="M88 586V458c0-41 33-74 74-74h123L88 586Z" fill="url(#td-icon-facet)" opacity="0.68" clip-path="url(#td-icon-clip)"/>
    <path fill="#FFFFFF" d="M151 431h156c9.1 0 15.3 9.1 12 17.6l-8.2 21.2c-2.4 6.2-8.3 10.2-14.9 10.2h-39.4c-9 0-16.3 7.3-16.3 16.3v120.5L229 636l-11.2-19.2V496.3c0-9-7.3-16.3-16.3-16.3h-39.4c-6.6 0-12.5-4-14.9-10.2L139 448.6c-3.3-8.5 2.9-17.6 12-17.6Z"/>
    <path fill="#FFFFFF" d="M154 493h36v92.2c0 12.5 6.1 24.1 16.3 31.1L229 632l-17.3 14.5-28.4-19.8C164.9 613.9 154 592.9 154 570.5V493Z"/>
    <path fill="#FFFFFF" d="M268 493h36v77.5c0 22.4-10.9 43.4-29.3 56.2l-28.4 19.8L229 632l22.7-15.7c10.2-7 16.3-18.6 16.3-31.1V493Z"/>
    <path fill="#FFFFFF" d="M229 626l20 17.1L229 660l-20-16.9Z"/>
  </g>

  <g id="wordmark" transform="translate(-84 279) scale(2.14)">
    <path id="toil-outline" fill="none" stroke="url(#td-toil-edge)" stroke-width="2.85" stroke-linejoin="round" stroke-linecap="round" d="m 247.59961,101.90625 h 16.71973 V 147 h 13.71093 v -45.09375 h 16.68164 V 90.251953 h -47.1123 z m 58.95625,46.00781 c 12.60644,0 21.13769,-8.26465 21.13769,-21.02343 0,-12.68262 -8.53125,-21.02344 -21.13769,-21.02344 -12.60645,0 -21.17578,8.34082 -21.17578,21.02344 0,12.75878 8.56933,21.02343 21.17578,21.02343 z m 0,-10.43554 c -4.6084,0 -7.88379,-3.77051 -7.88379,-10.58789 0,-6.7793 3.31348,-10.5879 7.88379,-10.5879 4.57031,0 7.88379,3.8086 7.88379,10.5879 0,6.81738 -3.31348,10.58789 -7.88379,10.58789 z M 330.13027,147 h 13.10156 v -40.21875 h -13.10156 z m 6.5127,-44.1416 c 4.22754,0 7.23633,-2.78027 7.23633,-6.626955 0,-3.846679 -3.00879,-6.588867 -7.23633,-6.588867 -4.18946,0 -7.19824,2.742188 -7.19824,6.588867 0,3.846685 3.00878,6.626955 7.19824,6.626955 z M 360.4459,90.251953 H 347.34434 V 147 h 13.10156 z" opacity="0.98"/>
    <path id="toil-fill" fill="#FFFFFF" d="m 247.59961,101.90625 h 16.71973 V 147 h 13.71093 v -45.09375 h 16.68164 V 90.251953 h -47.1123 z m 58.95625,46.00781 c 12.60644,0 21.13769,-8.26465 21.13769,-21.02343 0,-12.68262 -8.53125,-21.02344 -21.13769,-21.02344 -12.60645,0 -21.17578,8.34082 -21.17578,21.02344 0,12.75878 8.56933,21.02343 21.17578,21.02343 z m 0,-10.43554 c -4.6084,0 -7.88379,-3.77051 -7.88379,-10.58789 0,-6.7793 3.31348,-10.5879 7.88379,-10.5879 4.57031,0 7.88379,3.8086 7.88379,10.5879 0,6.81738 -3.31348,10.58789 -7.88379,10.58789 z M 330.13027,147 h 13.10156 v -40.21875 h -13.10156 z m 6.5127,-44.1416 c 4.22754,0 7.23633,-2.78027 7.23633,-6.626955 0,-3.846679 -3.00879,-6.588867 -7.23633,-6.588867 -4.18946,0 -7.19824,2.742188 -7.19824,6.588867 0,3.846685 3.00878,6.626955 7.19824,6.626955 z M 360.4459,90.251953 H 347.34434 V 147 h 13.10156 z"/>
    <path fill="url(#td-word-defender)" d="m 385.61992,147 c 17.44336,0 28.33594,-11.04492 28.33594,-28.37402 0,-17.3291 -11.04493,-28.374027 -28.33594,-28.374027 H 364.5584 V 147 Z m -7.35059,-11.42578 v -33.89649 h 6.5127 c 10.43555,0 15.38672,5.75098 15.38672,16.94825 0,11.15918 -4.83692,16.94824 -15.23438,16.94824 z m 57.16622,12.33984 c 10.16894,0 18.28125,-5.6748 19.7666,-13.78711 h -11.76856 c -0.95214,2.66602 -3.69433,4.3418 -7.54101,4.3418 -5.17969,0 -8.22656,-3.2373 -8.37891,-8.34082 h 27.99317 v -3.54199 c 0,-12.1875 -8.34082,-20.71875 -20.41407,-20.71875 -11.9209,0 -20.37597,8.75976 -20.37597,21.02344 0,12.26367 8.3789,21.02343 20.71875,21.02343 z m -7.84571,-25.63183 c 0.57129,-4.22754 3.42774,-6.74121 7.84571,-6.74121 4.37988,0 7.27441,2.51367 7.8457,6.74121 z m 55.98555,-15.50098 h -8.26464 v -2.1709 c 0,-3.04687 1.14257,-4.22754 4.26562,-4.22754 h 3.99902 V 90.251953 h -7.3125 c -9.55957,0 -14.09179,3.884766 -14.09179,12.073247 v 4.45605 h -7.3125 v 10.13086 h 7.3125 V 147 h 13.13965 v -30.08789 h 8.26464 z m 20.26094,41.13281 c 10.16895,0 18.28125,-5.6748 19.76661,-13.78711 h -11.76856 c -0.95215,2.66602 -3.69433,4.3418 -7.54101,4.3418 -5.17969,0 -8.22657,-3.2373 -8.37891,-8.34082 h 27.99316 v -3.54199 c 0,-12.1875 -8.34082,-20.71875 -20.41406,-20.71875 -11.9209,0 -20.37598,8.75976 -20.37598,21.02344 0,12.26367 8.37891,21.02343 20.71875,21.02343 z m -7.8457,-25.63183 c 0.57129,-4.22754 3.42774,-6.74121 7.8457,-6.74121 4.37989,0 7.27442,2.51367 7.84571,6.74121 z m 43.30292,2.85644 c 0,-5.48437 2.66601,-8.03613 6.81738,-8.03613 4.15137,0 6.55078,2.58984 6.55078,7.35059 V 147 h 13.10157 v -25.28906 c 0,-9.90235 -5.10352,-15.80567 -13.8252,-15.80567 -6.05566,0 -10.13086,2.78028 -12.79688,7.38868 v -6.5127 H 526.19199 V 147 h 13.10156 z m 46.31174,22.73731 c 5.29394,0 9.48339,-2.39942 11.57812,-7.08399 h 0.0381 V 147 h 12.9873 V 90.251953 h -13.13965 v 21.937497 h -0.0381 c -2.55176,-4.26562 -6.32227,-6.28418 -11.54004,-6.28418 -10.20703,0 -17.29102,8.60743 -17.29102,20.90918 0,12.72071 6.85547,21.06153 17.40528,21.06153 z m 3.65625,-10.47364 c -4.79883,0 -7.76954,-3.96093 -7.76954,-10.58789 0,-6.55078 2.97071,-10.47363 7.76954,-10.47363 4.95117,0 8.34082,4.11328 8.34082,10.47363 0,6.43653 -3.38965,10.58789 -8.34082,10.58789 z m 44.10272,10.51172 c 10.16894,0 18.28125,-5.6748 19.7666,-13.78711 H 641.3623 c -0.95214,2.66602 -3.69433,4.3418 -7.54101,4.3418 -5.17969,0 -8.22656,-3.2373 -8.37891,-8.34082 h 27.99317 v -3.54199 c 0,-12.1875 -8.34082,-20.71875 -20.41407,-20.71875 -11.92089,0 -20.37597,8.75976 -20.37597,21.02344 0,12.26367 8.3789,21.02343 20.71875,21.02343 z m -7.84571,-25.63183 c 0.57129,-4.22754 3.42774,-6.74121 7.84571,-6.74121 4.37988,0 7.27441,2.51367 7.8457,6.74121 z M 655.71991,147 h 13.10156 v -20.60449 c 0,-5.71289 3.23731,-8.98828 7.92188,-8.98828 1.90429,0 4.22754,0.0762 5.17968,0.11425 v -10.8164 c -1.0664,-0.0381 -2.17089,-0.0762 -3.58007,-0.0762 -5.37012,0 -8.37891,2.13281 -9.82618,7.23632 h -0.11425 v -7.08398 h -12.68262 z"/>
  </g>
</svg>
